
<?xml version="1.0" encoding="UTF-8" standalone="no"?>
<svg
   xmlns:dc="http://purl.org/dc/elements/1.1/"
   xmlns:cc="http://creativecommons.org/ns#"
   xmlns:rdf="http://www.w3.org/1999/02/22-rdf-syntax-ns#"
   xmlns:svg="http://www.w3.org/2000/svg"
   xmlns="http://www.w3.org/2000/svg"
   xmlns:sodipodi="http://sodipodi.sourceforge.net/DTD/sodipodi-0.dtd"
   xmlns:inkscape="http://www.inkscape.org/namespaces/inkscape"
   inkscape:export-ydpi="96"
   inkscape:export-xdpi="96"
   inkscape:version="1.0 (4035a4fb49, 2020-05-01)"
   sodipodi:docname="oxyde.svg"
   id="svg8"
   version="1.1"
   viewBox="0 0 198.67174 205.58015"
   height="205.58015mm"
   width="198.67174mm">
  <defs
     id="defs2" />
  <sodipodi:namedview
     inkscape:window-maximized="1"
     inkscape:window-y="-6"
     inkscape:window-x="-6"
     inkscape:window-height="850"
     inkscape:window-width="1368"
     showgrid="false"
     inkscape:document-rotation="0"
     inkscape:current-layer="layer1"
     inkscape:document-units="mm"
     inkscape:cy="327.07339"
     inkscape:cx="-119.86161"
     inkscape:zoom="0.32705556"
     inkscape:pageshadow="2"
     inkscape:pageopacity="0.0"
     borderopacity="1.0"
     bordercolor="#666666"
     pagecolor="#ffffff"
     id="base" />
  <metadata
     id="metadata5">
    <rdf:RDF>
      <cc:Work
         rdf:about="">
        <dc:format>image/svg+xml</dc:format>
        <dc:type
           rdf:resource="http://purl.org/dc/dcmitype/StillImage" />
      </cc:Work>
    </rdf:RDF>
  </metadata>
  <g
     transform="translate(-4.2623896,-57.960491)"
     id="layer1"
     inkscape:groupmode="layer"
     inkscape:label="Layer 1">
    <g
       id="g894"
       inkscape:export-xdpi="96"
       inkscape:export-ydpi="96">
      <path
         id="rect52"
         style="fill:#9e276b;fill-opacity:1;fill-rule:evenodd;stroke-width:0.183629"
         d="m 109.60973,208.78564 36.9067,-72.7279 15.299,-0.11963 -52.2057,99.17069 z"
         sodipodi:nodetypes="ccccc" />
      <path
         id="rect76"
         style="fill:#9e276b;fill-opacity:1;fill-rule:evenodd;stroke-width:0.183629"
         d="m 175.72015,140.73188 27.21397,5.57574 -10.85491,22.7953 -34.19296,8.68393 z"
         sodipodi:nodetypes="ccccc" />
      <path
         id="rect108"
         style="fill:#a13669;fill-opacity:1;fill-rule:evenodd;stroke-width:0.183629"
         d="m 40.337617,145.27021 21.889732,11.62093 -1.08549,8.68394 -21.031392,0.13568 z"
         sodipodi:nodetypes="ccccc" />
      <path
         id="rect105"
         style="fill:#a13669;fill-opacity:1;fill-rule:evenodd;stroke-width:0.183629"
         d="m 39.296349,157.70526 18.642896,3.86757 -2.631903,11.73638 -14.585944,10.72268 z"
         sodipodi:nodetypes="ccccc" />
      <path
         id="rect99"
         style="fill:#a32e65;fill-opacity:1;fill-rule:evenodd;stroke-width:0.183629"
         d="M 54.921222,194.39393 87.734327,216.845 71.587557,263.50275 34.964712,239.67987 33.929015,206.7189 Z"
         sodipodi:nodetypes="cccccc" />
      <path
         id="rect93"
         style="fill:#a7386d;fill-opacity:1;fill-rule:evenodd;stroke-width:0.183629"
         d="m 35.468169,189.28512 21.114212,-23.6417 -1.661159,28.75051 z"
         sodipodi:nodetypes="cccc" />
      <path
         id="rect90"
         style="fill:#a1376a;fill-opacity:1;fill-rule:evenodd;stroke-width:0.183629"
         d="m 110.12464,241.0167 37.26571,-60.40466 32.20571,10.74344 -25.17456,50.87041 -58.017239,15.42042 z"
         sodipodi:nodetypes="cccccc" />
      <path
         id="rect79"
         style="fill:#b42476;fill-opacity:1;fill-rule:evenodd;stroke-width:0.183629"
         d="m 160.78935,173.91605 31.28986,-4.81313 -12.48315,22.25256 -27.13728,-7.32706 z"
         sodipodi:nodetypes="ccccc" />
      <path
         id="rect82"
         style="fill:#cd3f90;fill-opacity:1;fill-rule:evenodd;stroke-width:0.183629"
         d="m 166.86938,129.00205 -0.57057,5.69883 -3.11532,6.58505 -8.79725,-4.95681 z"
         sodipodi:nodetypes="ccccc" />
      <path
         id="rect18"
         style="fill:#b2487a;fill-opacity:1;fill-rule:evenodd;stroke-width:0.183629"
         d="m 104.23682,75.614326 13.0485,-10.362034 33.38877,36.842788 -9.97825,35.69145 -24.14231,-14.82964 z"
         sodipodi:nodetypes="cccccc" />
      <path
         sodipodi:nodetypes="ccccc"
         d="m 89.754727,189.51715 50.941113,-51.73062 -6.51295,22.72478 -25.15967,53.74847 z"
         style="fill:#a7386d;fill-opacity:1;fill-rule:evenodd;stroke-width:0.183629"
         id="path16" />
      <path
         id="rect21"
         style="fill:#bb2874;fill-opacity:1;fill-rule:evenodd;stroke-width:0.183629"
         d="M 58.56712,82.522348 106.92327,57.960491 117.28532,65.252292 82.361422,93.65194 Z"
         sodipodi:nodetypes="ccccc" />
      <path
         id="rect24"
         style="fill:#b11a61;fill-opacity:1;fill-rule:evenodd;stroke-width:0.183629"
         d="m 58.56712,82.522348 32.483532,4.107166 -8.68923,7.022426 z"
         sodipodi:nodetypes="cccc" />
      <path
         id="rect27"
         style="fill:#cd3f90;fill-opacity:1;fill-rule:evenodd;stroke-width:0.183629"
         d="M 58.56712,82.522348 86.232222,95.449097 81.766184,112.79308 Z"
         sodipodi:nodetypes="cccc" />
      <path
         id="rect30"
         style="fill:#b42476;fill-opacity:1;fill-rule:evenodd;stroke-width:0.183629"
         d="M 57.342637,106.14445 58.56712,82.522348 81.766184,112.79308 81.082639,146.16642 Z"
         sodipodi:nodetypes="ccccc" />
      <path
         id="rect37"
         style="fill:#9e276b;fill-opacity:1;fill-rule:evenodd;stroke-width:0.183629"
         d="m 57.342637,106.14445 24.016488,33.10983 -0.301727,45.12632 -26.136176,10.01333 z"
         sodipodi:nodetypes="ccccc" />
      <path
         id="rect13"
         style="fill:#b42476;fill-opacity:1;fill-rule:evenodd;stroke-width:0.183629"
         d="m 79.674969,178.85089 49.396071,-58.20236 11.6248,17.138 -47.366797,57.75977 z"
         sodipodi:nodetypes="ccccc" />
      <path
         id="rect40"
         style="fill:#a1376a;fill-opacity:1;fill-rule:evenodd;stroke-width:0.183629"
         d="m 54.921222,194.39393 24.753747,-15.54304 29.934761,29.93475 -13.460276,15.72191 -24.561896,2.90262 -18.565945,-9.94956 z"
         sodipodi:nodetypes="ccccccc" />
      <path
         id="rect43"
         style="fill:#9e276b;fill-opacity:1;fill-rule:evenodd;stroke-width:0.183629"
         d="m 71.587557,227.41017 38.022173,-18.62453 0.77733,33.05107 -13.982799,15.8096 -24.816704,5.89433 z"
         sodipodi:nodetypes="cccccc" />
      <path
         id="rect49"
         style="fill:#b42476;fill-opacity:1;fill-rule:evenodd;stroke-width:0.183629"
         d="m 53.021613,217.46061 18.565944,9.94956 v 36.09258 L 52.591465,245.86352 Z"
         sodipodi:nodetypes="ccccc" />
      <path
         id="rect55"
         style="fill:#b42476;fill-opacity:1;fill-rule:evenodd;stroke-width:0.183629"
         d="m 151.94388,123.5746 14.92551,-7.59844 -1e-5,13.02589 -12.48314,7.32707 -7.86981,-0.27138 z"
         sodipodi:nodetypes="cccccc" />
      <path
         id="rect58"
         style="fill:#a7386d;fill-opacity:1;fill-rule:evenodd;stroke-width:0.183629"
         d="m 154.38625,136.32912 15.64511,-2.25033 9.83608,14.67118 -69.7428,92.26673 -0.51491,-5.9079 z"
         sodipodi:nodetypes="cccccc" />
      <path
         id="rect61"
         style="fill:#b11a61;fill-opacity:1;fill-rule:evenodd;stroke-width:0.183629"
         d="m 166.86939,115.97616 16.73061,31.80611 -3.73256,0.9677 -13.56863,-14.04909 z"
         sodipodi:nodetypes="ccccc" />
      <path
         id="rect64"
         style="fill:#a7386d;fill-opacity:1;fill-rule:evenodd;stroke-width:0.183629"
         d="m 166.86939,115.97616 21.4106,-1.41916 14.65413,31.75062 -23.06668,2.44235 z"
         sodipodi:nodetypes="ccccc" />
      <path
         id="rect96"
         style="fill:#a13669;fill-opacity:1;fill-rule:evenodd;stroke-width:0.183629"
         d="m 4.2623896,180.386 31.4822654,0.0516 19.176567,13.95635 -19.95651,45.28592 z"
         sodipodi:nodetypes="ccccc" />
      <path
         id="rect102"
         style="fill:#a7386d;fill-opacity:1;fill-rule:evenodd;stroke-width:0.183629"
         d="M 40.337617,145.27021 40.721398,184.03189 4.2623896,180.386 Z"
         sodipodi:nodetypes="cccc" />
      <path
         id="rect10"
         style="fill:#a7386d;fill-opacity:1;fill-rule:evenodd;stroke-width:0.183629"
         d="M 82.361422,93.65194 104.23682,75.614326 135.7067,130.8785 79.674969,178.85089 Z"
         sodipodi:nodetypes="ccccc" />
    </g>
  </g>
</svg>
